<svg xmlns="http://www.w3.org/2000/svg" viewBox="0 0 1600 1000" font-family="Helvetica, Arial, sans-serif">
<rect x="0" y="0" width="1600" height="1000" fill="white"/>
<rect x="10" y="10" width="1580" height="980" fill="none" stroke="black" stroke-width="0.5"/>
<rect x="34" y="34" width="1532" height="932" fill="none" stroke="black" stroke-width="1.4"/>
<text x="800.0" y="66" font-size="15" text-anchor="middle" fill="#000000" font-weight="bold">Synthetic Pump Skids &amp; Transmission Spine</text>
<text x="800.0" y="84" font-size="10" text-anchor="middle" fill="#555555">ISA-5.1 P&amp;ID — worked example (synthetic data)</text>
<svg x="44" y="96" width="1512" height="604" viewBox="0 0 1010 560" preserveAspectRatio="xMidYMin meet">
<polyline points="142.00,340.00 230.00,340.00 230.00,250.00 286.00,250.00" fill="none" stroke="#000000" stroke-width="2.2"/><polygon points="286.00,250.00 279.51,252.62 279.51,247.38" fill="#000000"/><g transform="translate(230.00,295.00) rotate(-90)"><polygon points="-7.00,-5.60 -7.00,5.60 7.00,0.00" fill="#000000" stroke="#000000" stroke-width="0"/></g><polyline points="142.00,340.00 230.00,340.00 230.00,430.00 286.00,430.00" fill="none" stroke="#000000" stroke-width="2.2"/><polygon points="286.00,430.00 279.51,432.62 279.51,427.38" fill="#000000"/><g transform="translate(230.00,385.00) rotate(90)"><polygon points="-7.00,-5.60 -7.00,5.60 7.00,0.00" fill="#000000" stroke="#000000" stroke-width="0"/></g><polyline points="314.00,250.00 384.00,250.00" fill="none" stroke="#000000" stroke-width="2.2"/><polygon points="384.00,250.00 377.51,252.62 377.51,247.38" fill="#000000"/><g transform="translate(349.00,250.00)"><polygon points="-7.00,-5.60 -7.00,5.60 7.00,0.00" fill="#000000" stroke="#000000" stroke-width="0"/></g><polyline points="416.00,250.00 486.00,250.00" fill="none" stroke="#000000" stroke-width="2.2"/><polygon points="486.00,250.00 479.51,252.62 479.51,247.38" fill="#000000"/><g transform="translate(451.00,250.00)"><polygon points="-7.00,-5.60 -7.00,5.60 7.00,0.00" fill="#000000" stroke="#000000" stroke-width="0"/></g><polyline points="514.00,250.00 576.00,250.00" fill="none" stroke="#000000" stroke-width="2.2"/><polygon points="576.00,250.00 569.51,252.62 569.51,247.38" fill="#000000"/><g transform="translate(545.00,250.00)"><polygon points="-7.00,-5.60 -7.00,5.60 7.00,0.00" fill="#000000" stroke="#000000" stroke-width="0"/></g><polyline points="314.00,430.00 384.00,430.00" fill="none" stroke="#000000" stroke-width="2.2"/><polygon points="384.00,430.00 377.51,432.62 377.51,427.38" fill="#000000"/><g transform="translate(349.00,430.00)"><polygon points="-7.00,-5.60 -7.00,5.60 7.00,0.00" fill="#000000" stroke="#000000" stroke-width="0"/></g><polyline points="416.00,430.00 486.00,430.00" fill="none" stroke="#000000" stroke-width="2.2"/><polygon points="486.00,430.00 479.51,432.62 479.51,427.38" fill="#000000"/><g transform="translate(451.00,430.00)"><polygon points="-7.00,-5.60 -7.00,5.60 7.00,0.00" fill="#000000" stroke="#000000" stroke-width="0"/></g><polyline points="514.00,430.00 576.00,430.00" fill="none" stroke="#000000" stroke-width="2.2"/><polygon points="576.00,430.00 569.51,432.62 569.51,427.38" fill="#000000"/><g transform="translate(545.00,430.00)"><polygon points="-7.00,-5.60 -7.00,5.60 7.00,0.00" fill="#000000" stroke="#000000" stroke-width="0"/></g><polyline points="604.00,250.00 700.00,250.00 700.00,340.00 766.00,340.00" fill="none" stroke="#000000" stroke-width="2.2"/><polygon points="766.00,340.00 759.51,342.62 759.51,337.38" fill="#000000"/><g transform="translate(652.00,250.00)"><polygon points="-7.00,-5.60 -7.00,5.60 7.00,0.00" fill="#000000" stroke="#000000" stroke-width="0"/></g><polyline points="604.00,430.00 700.00,430.00 700.00,340.00 766.00,340.00" fill="none" stroke="#000000" stroke-width="2.2"/><polygon points="766.00,340.00 759.51,342.62 759.51,337.38" fill="#000000"/><g transform="translate(652.00,430.00)"><polygon points="-7.00,-5.60 -7.00,5.60 7.00,0.00" fill="#000000" stroke="#000000" stroke-width="0"/></g><polyline points="794.00,340.00 893.00,340.00" fill="none" stroke="#000000" stroke-width="2.2"/><polygon points="893.00,340.00 886.51,342.62 886.51,337.38" fill="#000000"/><g transform="translate(843.50,340.00)"><polygon points="-7.00,-5.60 -7.00,5.60 7.00,0.00" fill="#000000" stroke="#000000" stroke-width="0"/></g><text x="897.0" y="336.0" font-size="8" text-anchor="start" fill="#555555">DN250</text><polyline points="235.00,172.80 235.00,224.00 300.00,224.00 300.00,240.00" fill="none" stroke="#000000" stroke-width="2.2"/><polygon points="300.00,240.00 297.38,233.51 302.62,233.51" fill="#000000"/><g transform="translate(267.50,224.00)"><polygon points="-7.00,-5.60 -7.00,5.60 7.00,0.00" fill="#000000" stroke="#000000" stroke-width="0"/></g><text x="304.0" y="220.0" font-size="8" text-anchor="start" fill="#555555">Dosing</text><polyline points="110.00,165.00 110.00,255.00" fill="none" stroke="#000000" stroke-width="1.0"/><polyline points="590.00,165.00 590.00,240.00" fill="none" stroke="#000000" stroke-width="1.0"/><polyline points="757.50,150.00 590.00,150.00 590.00,135.00" fill="none" stroke="#000000" stroke-width="1.3" stroke-dasharray="7 4"/><polyline points="780.00,172.50 780.00,330.00" fill="none" stroke="#000000" stroke-width="1.4"/><line x1="785.00" y1="244.25" x2="775.00" y2="250.25" stroke="#000000" stroke-width="1.1"/><line x1="785.00" y1="252.25" x2="775.00" y2="258.25" stroke="#000000" stroke-width="1.1"/><g transform="translate(110.00,340.00)"><rect x="-32.00" y="-85.00" width="64.00" height="170.00" fill="#ffffff" stroke="#000000" stroke-width="1.4"/></g><text x="110.0" y="439.0" font-size="8.5" text-anchor="middle" fill="#000000" font-weight="bold">=SYN +BT -T01</text><text x="110.0" y="249.0" font-size="8" text-anchor="middle" fill="#555555">Break tank</text><g transform="translate(235.00,150.00)"><rect x="-75.00" y="-43.00" width="150.00" height="86.00" fill="none" stroke="#000000" stroke-width="1.2" stroke-dasharray="6 4"/><text x="-69.00" y="-34.00" font-size="8" text-anchor="start" font-family="Helvetica, Arial, sans-serif" fill="#555555" dominant-baseline="middle">DOSING SKID</text></g><text x="235.0" y="239.0" font-size="8.5" text-anchor="middle" fill="#000000" font-weight="bold">=SYN +DOS -PKG</text><g transform="translate(235.00,160.00) scale(0.8)"><circle cx="0.00" cy="0.00" r="16.00" fill="#ffffff" stroke="#000000" stroke-width="1.4"/><polygon points="-8.80,-9.60 -8.80,9.60 12.00,0.00" fill="#ffffff" stroke="#000000" stroke-width="1.4"/></g><text x="235.0" y="186.8" font-size="8.5" text-anchor="middle" fill="#000000" font-weight="bold">=SYN +DOS -P01</text><g transform="translate(300.00,250.00)"><polygon points="-14.00,-10.00 -14.00,10.00 0.00,0.00" fill="#ffffff" stroke="#000000" stroke-width="1.4"/><polygon points="14.00,-10.00 14.00,10.00 0.00,0.00" fill="#ffffff" stroke="#000000" stroke-width="1.4"/></g><text x="300.0" y="290.0" font-size="8.5" text-anchor="middle" fill="#000000" font-weight="bold">=SYN +S1 -VG01A</text><g transform="translate(400.00,250.00)"><circle cx="0.00" cy="0.00" r="16.00" fill="#ffffff" stroke="#000000" stroke-width="1.4"/><polygon points="-8.80,-9.60 -8.80,9.60 12.00,0.00" fill="#ffffff" stroke="#000000" stroke-width="1.4"/></g><text x="400.0" y="280.0" font-size="8.5" text-anchor="middle" fill="#000000" font-weight="bold">=SYN +S1 -P01A</text><text x="400.0" y="228.0" font-size="8" text-anchor="middle" fill="#555555">Duty</text><g transform="translate(500.00,250.00)"><polygon points="-14.00,-10.00 -14.00,10.00 0.00,0.00" fill="#ffffff" stroke="#000000" stroke-width="1.4"/><polygon points="14.00,-10.00 14.00,10.00 0.00,0.00" fill="#ffffff" stroke="#000000" stroke-width="1.4"/><polygon points="-4.00,-5.00 -4.00,5.00 5.00,0.00" fill="#000000" stroke="#000000" stroke-width="0"/></g><text x="500.0" y="290.0" font-size="8.5" text-anchor="middle" fill="#000000" font-weight="bold">=SYN +S1 -VC01A</text><g transform="translate(590.00,250.00)"><polygon points="-14.00,-10.00 -14.00,10.00 0.00,0.00" fill="#ffffff" stroke="#000000" stroke-width="1.4"/><polygon points="14.00,-10.00 14.00,10.00 0.00,0.00" fill="#ffffff" stroke="#000000" stroke-width="1.4"/></g><text x="590.0" y="290.0" font-size="8.5" text-anchor="middle" fill="#000000" font-weight="bold">=SYN +S1 -VG02A</text><g transform="translate(300.00,430.00)"><polygon points="-14.00,-10.00 -14.00,10.00 0.00,0.00" fill="#ffffff" stroke="#000000" stroke-width="1.4"/><polygon points="14.00,-10.00 14.00,10.00 0.00,0.00" fill="#ffffff" stroke="#000000" stroke-width="1.4"/></g><text x="300.0" y="470.0" font-size="8.5" text-anchor="middle" fill="#000000" font-weight="bold">=SYN +S2 -VG01B</text><g transform="translate(400.00,430.00)"><circle cx="0.00" cy="0.00" r="16.00" fill="#ffffff" stroke="#000000" stroke-width="1.4"/><polygon points="-8.80,-9.60 -8.80,9.60 12.00,0.00" fill="#ffffff" stroke="#000000" stroke-width="1.4"/></g><text x="400.0" y="460.0" font-size="8.5" text-anchor="middle" fill="#000000" font-weight="bold">=SYN +S2 -P01B</text><text x="400.0" y="408.0" font-size="8" text-anchor="middle" fill="#555555">Standby</text><g transform="translate(500.00,430.00)"><polygon points="-14.00,-10.00 -14.00,10.00 0.00,0.00" fill="#ffffff" stroke="#000000" stroke-width="1.4"/><polygon points="14.00,-10.00 14.00,10.00 0.00,0.00" fill="#ffffff" stroke="#000000" stroke-width="1.4"/><polygon points="-4.00,-5.00 -4.00,5.00 5.00,0.00" fill="#000000" stroke="#000000" stroke-width="0"/></g><text x="500.0" y="470.0" font-size="8.5" text-anchor="middle" fill="#000000" font-weight="bold">=SYN +S2 -VC01B</text><g transform="translate(590.00,430.00)"><polygon points="-14.00,-10.00 -14.00,10.00 0.00,0.00" fill="#ffffff" stroke="#000000" stroke-width="1.4"/><polygon points="14.00,-10.00 14.00,10.00 0.00,0.00" fill="#ffffff" stroke="#000000" stroke-width="1.4"/></g><text x="590.0" y="470.0" font-size="8.5" text-anchor="middle" fill="#000000" font-weight="bold">=SYN +S2 -VG02B</text><g transform="translate(780.00,340.00)"><polygon points="-14.00,-10.00 -14.00,10.00 0.00,0.00" fill="#ffffff" stroke="#000000" stroke-width="1.4"/><polygon points="14.00,-10.00 14.00,10.00 0.00,0.00" fill="#ffffff" stroke="#000000" stroke-width="1.4"/><circle cx="0.00" cy="0.00" r="4.00" fill="#000000" stroke="#000000" stroke-width="0"/><line x1="0.00" y1="-10.00" x2="0.00" y2="-22.00" stroke="#000000" stroke-width="1.2"/><path d="M -9 -22.0 A 9 9 0 0 1 9 -22.0 Z" fill="#ffffff" stroke="#000000" stroke-width="1.4"/></g><text x="780.0" y="380.0" font-size="8.5" text-anchor="middle" fill="#000000" font-weight="bold">=SYN +TX -FCV01</text><g transform="translate(910.00,340.00)"><polygon points="-17.00,-13.00 6.80,-13.00 17.00,0.00 6.80,13.00 -17.00,13.00" fill="#ffffff" stroke="#000000" stroke-width="1.4"/><text x="-2.55" y="0.00" font-size="7.5" text-anchor="middle" font-family="Helvetica, Arial, sans-serif" fill="#000000" font-weight="bold" dominant-baseline="middle">PLANT</text></g><g transform="translate(110.00,150.00)"><circle cx="0.00" cy="0.00" r="15.00" fill="#ffffff" stroke="#000000" stroke-width="1.4"/><text x="0.00" y="-6.30" font-size="10" text-anchor="middle" font-family="Helvetica, Arial, sans-serif" fill="#000000" font-weight="bold" dominant-baseline="middle">LT</text><text x="0.00" y="6.75" font-size="9" text-anchor="middle" font-family="Helvetica, Arial, sans-serif" fill="#000000" dominant-baseline="middle">101</text></g><g transform="translate(590.00,150.00)"><circle cx="0.00" cy="0.00" r="15.00" fill="#ffffff" stroke="#000000" stroke-width="1.4"/><text x="0.00" y="-6.30" font-size="10" text-anchor="middle" font-family="Helvetica, Arial, sans-serif" fill="#000000" font-weight="bold" dominant-baseline="middle">PT</text><text x="0.00" y="6.75" font-size="9" text-anchor="middle" font-family="Helvetica, Arial, sans-serif" fill="#000000" dominant-baseline="middle">101</text></g><g transform="translate(780.00,150.00)"><rect x="-15.00" y="-15.00" width="30.00" height="30.00" fill="#ffffff" stroke="#000000" stroke-width="1.4"/><circle cx="0.00" cy="0.00" r="15.00" fill="#ffffff" stroke="#000000" stroke-width="1.4"/><line x1="-15.00" y1="0.00" x2="15.00" y2="0.00" stroke="#000000" stroke-width="1.0"/><text x="0.00" y="-6.30" font-size="10" text-anchor="middle" font-family="Helvetica, Arial, sans-serif" fill="#000000" font-weight="bold" dominant-baseline="middle">FIC</text><text x="0.00" y="6.75" font-size="9" text-anchor="middle" font-family="Helvetica, Arial, sans-serif" fill="#000000" dominant-baseline="middle">101</text></g>
</svg>
<g font-family="Helvetica, Arial, sans-serif">
<rect x="46" y="708" width="470" height="116" fill="none" stroke="black" stroke-width="0.8"/>
<text x="56" y="724" font-size="11" text-anchor="start" fill="#000000" font-weight="bold">NOTES</text>
<text x="56" y="742" font-size="8.4" text-anchor="start" fill="#000000">1. SYNTHETIC EXAMPLE — illustrative data only; NOT real tags, sizes or configuration.</text>
<text x="56" y="757" font-size="8.4" text-anchor="start" fill="#000000">2. Tags shown are IEC =system +location -component; production tags come from the shared</text>
<text x="56" y="772" font-size="8.4" text-anchor="start" fill="#000000">    register (parts-db/PROJECT.tags.yaml), not from this drawing.</text>
<text x="56" y="787" font-size="8.4" text-anchor="start" fill="#000000">3. Concept only. Line sizes/instrument ranges are placeholders pending the process</text>
<text x="56" y="802" font-size="8.4" text-anchor="start" fill="#000000">    datasheet.</text>
<text x="56" y="817" font-size="8.4" text-anchor="start" fill="#000000">4. Layout is positional (data-driven); cloning to another site is a data edit.</text>
</g>
<g font-family="Helvetica, Arial, sans-serif">
<rect x="540" y="708" width="300" height="164" fill="none" stroke="black" stroke-width="0.8"/>
<text x="550" y="723" font-size="11" text-anchor="start" fill="#000000" font-weight="bold">LEGEND</text>
<g transform="translate(563.00,736.00) scale(0.5)"><circle cx="0.00" cy="0.00" r="16.00" fill="#ffffff" stroke="#000000" stroke-width="1.4"/><polygon points="-8.80,-9.60 -8.80,9.60 12.00,0.00" fill="#ffffff" stroke="#000000" stroke-width="1.4"/></g>
<text x="584" y="742" font-size="8.5" text-anchor="start" fill="#000000">Centrifugal pump</text>
<g transform="translate(563.00,754.00) scale(0.5)"><polygon points="-14.00,-10.00 -14.00,10.00 0.00,0.00" fill="#ffffff" stroke="#000000" stroke-width="1.4"/><polygon points="14.00,-10.00 14.00,10.00 0.00,0.00" fill="#ffffff" stroke="#000000" stroke-width="1.4"/></g>
<text x="584" y="760" font-size="8.5" text-anchor="start" fill="#000000">Valve (gate/globe/butterfly/check)</text>
<g transform="translate(563.00,772.00) scale(0.45)"><circle cx="0.00" cy="0.00" r="15.00" fill="#ffffff" stroke="#000000" stroke-width="1.4"/><text x="0.00" y="-6.30" font-size="10" text-anchor="middle" font-family="Helvetica, Arial, sans-serif" fill="#000000" font-weight="bold" dominant-baseline="middle">FT</text></g>
<text x="584" y="778" font-size="8.5" text-anchor="start" fill="#000000">Instrument bubble (field / panel / DCS)</text>
<g transform="translate(563.00,790.00) scale(0.7)"><polygon points="-17.00,-13.00 6.80,-13.00 17.00,0.00 6.80,13.00 -17.00,13.00" fill="#ffffff" stroke="#000000" stroke-width="1.4"/></g>
<text x="584" y="796" font-size="8.5" text-anchor="start" fill="#000000">Tie-in / battery limit (off-page)</text>
<line x1="552" y1="808" x2="578" y2="808" stroke="black" stroke-width="2.2"/><g transform="translate(572.00,808.00) scale(0.8)"><polygon points="-7.00,-5.60 -7.00,5.60 7.00,0.00" fill="#000000" stroke="#000000" stroke-width="0"/></g>
<text x="584" y="814" font-size="8.5" text-anchor="start" fill="#000000">Process line</text>
<line x1="552" y1="826" x2="578" y2="826" stroke="black" stroke-width="1"/>
<text x="584" y="832" font-size="8.5" text-anchor="start" fill="#000000">Instrument signal (to process)</text>
<line x1="552" y1="844" x2="578" y2="844" stroke="black" stroke-width="1.3" stroke-dasharray="7 4"/>
<text x="584" y="850" font-size="8.5" text-anchor="start" fill="#000000">Electric signal</text>
<line x1="558.00" y1="857.00" x2="564.00" y2="867.00" stroke="#000000" stroke-width="1.1"/><line x1="566.00" y1="857.00" x2="572.00" y2="867.00" stroke="#000000" stroke-width="1.1"/><line x1="552" y1="862" x2="578" y2="862" stroke="black" stroke-width="1.4"/>
<text x="584" y="868" font-size="8.5" text-anchor="start" fill="#000000">Pneumatic signal</text>
</g>
<g class="status-watermark" opacity="0.14" pointer-events="none"><text x="800.0" y="500.0" font-size="53.3" fill="#ff4444" text-anchor="middle" dominant-baseline="middle" font-family="monospace" font-weight="bold" transform="rotate(-32.0,800.0,500.0)">CONCEPT — NOT FOR CONSTRUCTION</text></g>
<g font-family="Helvetica, Arial, sans-serif">
<rect x="1058.0" y="810" width="250.0" height="46" fill="none" stroke="black" stroke-width="0.8"/>
<text x="1183.0" y="832.0" font-size="13" text-anchor="middle" fill="#000000" font-weight="bold">OWNER</text>
<text x="1183.0" y="845.0" font-size="7" text-anchor="middle" fill="#555555">[logo — supply asset]</text>
<rect x="1308.0" y="810" width="250.0" height="46" fill="none" stroke="black" stroke-width="0.8"/>
<text x="1433.0" y="832.0" font-size="13" text-anchor="middle" fill="#000000" font-weight="bold">CLIENT</text>
<text x="1433.0" y="845.0" font-size="7" text-anchor="middle" fill="#555555">[logo — supply asset]</text>
</g>
<g class="title-block" font-family="Helvetica, Arial, sans-serif">
<rect x="1058" y="862" width="500" height="96" fill="none" stroke="black" stroke-width="1.0"/>
<line x1="1058" y1="890" x2="1558" y2="890" stroke="black" stroke-width="0.6"/>
<line x1="1058" y1="920" x2="1558" y2="920" stroke="black" stroke-width="0.6"/>
<line x1="1268" y1="862" x2="1268" y2="890" stroke="black" stroke-width="0.6"/>
<line x1="1408" y1="862" x2="1408" y2="890" stroke="black" stroke-width="0.6"/>
<line x1="1358" y1="920" x2="1358" y2="958" stroke="black" stroke-width="0.6"/>
<line x1="1428" y1="920" x2="1428" y2="958" stroke="black" stroke-width="0.6"/>
<text x="1064" y="873" font-size="7" text-anchor="start" fill="#555555">RESPONSIBLE DEPT.</text>
<text x="1274" y="873" font-size="7" text-anchor="start" fill="#555555">TECHNICAL REFERENCE</text>
<text x="1414" y="873" font-size="7" text-anchor="start" fill="#555555">CREATED / APPR.</text>
<text x="1064" y="886" font-size="10" text-anchor="start" fill="#000000">Example Client</text>
<text x="1274" y="886" font-size="10" text-anchor="start" fill="#000000">Water Supply (SYNTHETIC)</text>
<text x="1414" y="886" font-size="8" text-anchor="start" fill="#000000">AI-assisted / (Eng. —)</text>
<text x="1064" y="903" font-size="7" text-anchor="start" fill="#555555">DOCUMENT TYPE</text>
<text x="1274" y="903" font-size="7" text-anchor="start" fill="#555555">DOCUMENT STATUS</text>
<text x="1064" y="916" font-size="10" text-anchor="start" fill="#000000" font-weight="bold">P&amp;ID (ISA-5.1)</text>
<text x="1274" y="916" font-size="10" text-anchor="start" fill="#b00000" font-weight="bold">CONCEPT — NOT FOR CONSTRUCTION</text>
<text x="1064" y="933" font-size="7" text-anchor="start" fill="#555555">TITLE / LEGAL OWNER</text>
<text x="1364" y="933" font-size="7" text-anchor="start" fill="#555555">DOC. No.</text>
<text x="1434" y="933" font-size="7" text-anchor="start" fill="#555555">REV / DATE</text>
<text x="1064" y="950" font-size="10" text-anchor="start" fill="#000000" font-weight="bold">Synthetic Pump Skids &amp; Transmission Spine</text>
<text x="1364" y="950" font-size="9" text-anchor="start" fill="#000000" font-weight="bold">SYN-PSK-PID-001</text>
<text x="1434" y="950" font-size="8" text-anchor="start" fill="#000000">A · 2026-07-16</text>
</g>
</svg>